# xmcd
#
# Track frame offsets:
#	150
#	12783
#	30513
#	41873
#	56571
#	72059
#	84837
#	98459
#	112073
#	122438
#	138109
#	154920
#	164630
#	176858
#	191372
#
# Disc length: 2761 seconds
#
# Revision: 1
# Processed by: cddbd v1.5.2PL0 Copyright (c) Steve Scherf et al.
# Submitted via: audiograbber 1.83.01
#
DISCID=bb0ac70f
DTITLE=Various Artist - Chartbuster Pro Disc Vol. 25 CBCDG-60025
DYEAR=1900
DGENRE=Karaoke
TTITLE0=Buck Owens - Act Naturally
TTITLE1=Mickey Gilley - Stand By Me
TTITLE2=Dolly Parton - Nine To Five
TTITLE3=Kenny Rogers - Ruby, Don't Take Your Love To Town
TTITLE4=Merle Haggard - Silver Wings
TTITLE5=Marty Robbins - White Sport Coat
TTITLE6=Conway Twitty - TIght Fittin' Jeans
TTITLE7=Tanya Tucker - What's Your Mama's Name
TTITLE8=Tom T. Hall - I Love
TTITLE9=Lefty Frizzell - Saginaw, Michigan
TTITLE10=Ray Stevens - Everything Is Beautiful
TTITLE11=Loretta Lynn - Don't Come Home A' Drinkin' (With Lovin' On Your Mind)
TTITLE12=Osborne Brothers - Rocky Top
TTITLE13=Mickey Gilley - Don't The Girls All Get Prettier At Closing Time
TTITLE14=Freddy Fender - Wasted Days and Wasted Nights
EXTD=
EXTT0=
EXTT1=
EXTT2=
EXTT3=
EXTT4=
EXTT5=
EXTT6=
EXTT7=
EXTT8=
EXTT9=
EXTT10=
EXTT11=
EXTT12=
EXTT13=
EXTT14=
PLAYORDER=
